<?xml version="1.0" standalone="no"?>
<!DOCTYPE svg PUBLIC "-//W3C//DTD SVG 20010904//EN"
 "http://www.w3.org/TR/2001/REC-SVG-20010904/DTD/svg10.dtd">
<svg version="1.0" xmlns="http://www.w3.org/2000/svg"
 width="920.000000pt" height="512.000000pt" viewBox="0 0 920.000000 512.000000"
 preserveAspectRatio="xMidYMid meet">

<g transform="translate(0.000000,512.000000) scale(0.100000,-0.100000)"
fill="#000000" stroke="none">
<path d="M3492 5105 c-199 -44 -400 -214 -478 -406 -13 -32 -24 -61 -24 -64 0
-3 84 -5 186 -5 l186 0 54 49 c32 30 77 58 110 70 55 21 59 21 1327 19 l1272
-3 53 -30 c70 -38 136 -112 161 -181 21 -54 21 -66 21 -1629 0 -1563 0 -1575
-21 -1629 -11 -30 -40 -77 -65 -105 -41 -45 -129 -101 -161 -101 -11 0 -13
193 -13 1049 0 1036 0 1050 -21 1117 -41 135 -56 153 -508 606 -418 419 -427
428 -509 467 -46 22 -107 45 -136 51 -36 7 -340 10 -972 8 l-919 -3 -65 -23
c-192 -69 -326 -186 -410 -357 -74 -152 -70 -50 -70 -1815 0 -1753 -4 -1650
66 -1796 68 -145 177 -255 320 -325 150 -73 83 -70 1452 -67 1164 3 1230 4
1282 22 292 98 490 356 490 637 0 67 1 69 28 75 172 37 268 88 382 203 97 98
146 184 180 316 20 77 20 109 20 1667 0 1779 5 1656 -73 1818 -34 70 -57 101
-132 175 -72 72 -107 99 -175 133 -151 75 -74 72 -1500 71 -1042 0 -1287 -3
-1338 -14z m1350 -1302 c4 -212 7 -244 26 -297 58 -158 170 -268 322 -318 57
-19 94 -22 311 -26 l247 -4 6 -30 c10 -52 7 -2428 -4 -2492 -18 -113 -81 -200
-182 -253 l-53 -28 -1202 -3 -1201 -2 -59 21 c-79 30 -162 113 -191 192 l-22
58 0 1574 0 1574 22 58 c28 77 112 162 188 191 54 21 65 21 921 21 l867 1 4
-237z"/>
<path d="M3322 3119 c-19 -6 -53 -29 -76 -53 -95 -94 -78 -238 35 -313 l43
-28 585 0 586 0 42 24 c114 65 138 219 48 313 -61 66 -32 63 -660 65 -346 1
-583 -2 -603 -8z"/>
<path d="M3305 2236 c-44 -19 -102 -88 -115 -137 -22 -79 7 -151 83 -213 l39
-31 982 0 983 0 41 29 c57 39 96 119 90 181 -7 62 -38 115 -87 150 l-43 30
-971 2 c-786 2 -978 0 -1002 -11z"/>
<path d="M3315 1365 c-22 -8 -56 -32 -77 -55 -93 -104 -62 -257 66 -316 l51
-24 934 0 c707 0 944 3 974 12 82 25 147 114 147 201 0 67 -55 146 -125 178
-38 18 -86 19 -985 18 -785 0 -952 -2 -985 -14z"/>
</g>
</svg>
